- 
http://www.Speed.Cd
 
http://www.Speed.Cd      fast  and The Hottest Private Tracker on the net

(((--submit for invite!!--)))

Please Seed back to make the speed Faster!!!

and don't forget to visit .......http://www.Speed.Cd  ......


 ............ NFO .............
-General
Unique ID                                : 225090125501698850966954369721913412047 (0xA956C8028DA5219E8841B02BB7A189CF)
Complete name                            : D:iTunesTV ShowsTeen WolfTeen.Wolf.S02E04.720p.WEB-DL.DD5.1.H.264-KiNGSTeen.Wolf.S02E04.720p.WEB-DL.DD5.1.H.264-KiNGS.mkv
Format                                   : Matroska
Format version                           : Version 2
File size                                : 1.26 GiB
Duration                                 : 41mn 59s
Overall bit rate                         : 4 290 Kbps
Encoded date                             : UTC 2012-06-19 07:46:05
Writing application                      : mkvmerge v5.6.0 ('Kenya Kane') built on May 27 2012 16:44:04
Writing library                          : libebml v1.2.3 + libmatroska v1.3.0

Video
ID                                       : 1
Format                                   : AVC
Format/Info                              : Advanced Video Codec
Format profile                           : High@L3.1
Format settings, CABAC                   : No
Format settings, ReFrames                : 2 frames
Codec ID                                 : V_MPEG4/ISO/AVC
Duration                                 : 41mn 59s
Bit rate                                 : 3 821 Kbps
Width                                    : 1 280 pixels
Height                                   : 720 pixels
Display aspect ratio                     : 16:9
Frame rate                               : 23.976 fps
Color space                              : YUV
Chroma subsampling                       : 4:2:0
Bit depth                                : 8 bits
Scan type                                : Progressive
Bits/(Pixel*Frame)                       : 0.173
Stream size                              : 1.12 GiB (89%)
Language                                 : English
Default                                  : Yes
Forced                                   : No
Color primaries                          : BT.709-5, BT.1361, IEC 61966-2-4, SMPTE RP177
Transfer characteristics                 : BT.709-5, BT.1361
Matrix coefficients                      : BT.709-5, BT.1361, IEC 61966-2-4 709, SMPTE RP177

Audio
ID                                       : 2
Format                                   : AC-3
Format/Info                              : Audio Coding 3
Mode extension                           : CM (complete main)
Format settings, Endianness              : Big
Codec ID                                 : A_AC3
Duration                                 : 41mn 59s
Bit rate mode                            : Constant
Bit rate                                 : 384 Kbps
Channel(s)                               : 6 channels
Channel positions                        : Front: L C R, Side: L R, LFE
Sampling rate                            : 48.0 KHz
Bit depth                                : 16 bits
Compression mode                         : Lossy
Stream size                              : 115 MiB (9%)
Language                                 : English
Default                                  : Yes
Forced                                   : No